<svg id="Layer_1" data-name="Layer 1" xmlns="http://www.w3.org/2000/svg" width="122.13mm" height="19.82mm" viewBox="0 0 346.2 56.19"><defs><style>.cls-1{fill:#fff;}</style></defs><title>logo_white</title><path class="cls-1" d="M163.11,99.27c0,.63-.19.92-.77.92h-2.53c-.58,0-.82-.29-.82-.92V85.58c0-3.4-.88-5.92-4.71-5.92a11.21,11.21,0,0,0-6.75,2.81v16.8c0,.63-.24.92-.82.92h-2.53c-.53,0-.77-.29-.77-.88V67c0-.67.34-.92.92-1,1.84-.25,2.33-.34,2.47-.34.44,0,.73.19.73.82V79.07a12.45,12.45,0,0,1,8-2.86c5.58,0,7.62,3.4,7.62,8.69Z" transform="translate(-80.67 -54.9)"/><path class="cls-1" d="M188.39,87.71c0,1.12-.19,1.36-1.46,1.36H172c.15,4.61,2.77,8.2,7.67,8.2a17.31,17.31,0,0,0,5.83-1c.43-.15.92-.25,1.06.34l.54,1.79c.14.44-.1.63-.54.88a19.56,19.56,0,0,1-7.42,1.4c-7.48,0-11.46-4.9-11.46-12.23,0-6.94,4.32-12.23,11.31-12.23a8.93,8.93,0,0,1,6.6,2.67,11.2,11.2,0,0,1,2.77,8Zm-4.08-1.45v-.68c0-3.3-1.79-6.17-5.48-6.17-4,0-6.31,3.26-6.7,6.85Z" transform="translate(-80.67 -54.9)"/><path class="cls-1" d="M214.7,99.56c0,.48-.24.63-.73.63h-2c-2.13,0-3.15-1.65-3.15-3.59h-.1a8.89,8.89,0,0,1-7.28,4.07c-6.7,0-9.66-5.68-9.66-11.79,0-8.11,4.81-12.67,10.34-12.67a8.24,8.24,0,0,1,6.5,3l0-1.6c0-.58.39-.83.93-.83h2.18c.58,0,.87.29.87.92v17a5.18,5.18,0,0,0,.25,2.19.8.8,0,0,0,.82.43H214c.44,0,.68.1.68.63ZM208.49,83a6.77,6.77,0,0,0-5.88-3.49c-3.73,0-6.55,3.3-6.55,9.08,0,5.33,2.48,8.64,6,8.64,3.11,0,5.58-2.48,6.46-4.91Z" transform="translate(-80.67 -54.9)"/><path class="cls-1" d="M239.07,99.17c0,.63-.29,1-.73,1h-2.08c-.73,0-1-.29-1-.92l-.05-1.75a9.74,9.74,0,0,1-7.14,3.15c-7,0-10-5.72-10-12.08,0-7.14,4.18-12.43,10.58-12.43A8.7,8.7,0,0,1,235,78.88V67c0-.63.14-.92.77-1,2.48-.34,2.53-.34,2.62-.34.49,0,.73.24.73.82ZM235,82.86a6.9,6.9,0,0,0-5.73-3.4c-4.37,0-6.89,3.59-6.89,8.93,0,5.15,2.28,9,6.5,9a8.17,8.17,0,0,0,6.12-3.2Z" transform="translate(-80.67 -54.9)"/><path class="cls-1" d="M259,66c.69.24.69.68.54,1.21l-.34,1.5c-.1.34-.24.49-.49.49a1.34,1.34,0,0,1-.43-.1,10.21,10.21,0,0,0-3.21-.63c-3.3,0-4.22,2.19-4.22,6v2.28h6c.49,0,.73.1.73.58V79c0,.48-.2.68-.68.68h-6V99.12c0,.68-.24,1.07-.92,1.07h-2.28c-.63,0-.93-.34-.93-1V79.66h-2.86c-.53,0-.63-.1-.63-.73V77.42c0-.48.19-.68.68-.68h2.81v-.92a33.7,33.7,0,0,1,.2-3.88c.58-4.23,3.15-6.75,7.67-6.75A12.85,12.85,0,0,1,259,66Z" transform="translate(-80.67 -54.9)"/><path class="cls-1" d="M269.94,100.67c-7.52,0-10.87-5.34-10.87-12.28S263,76.21,270.23,76.21c7.52,0,10.92,5.19,10.92,12.23C281.15,95.29,277.17,100.67,269.94,100.67Zm.24-21.26c-5.24,0-6.84,4.61-6.84,8.89,0,4.46,1.5,9.17,6.65,9.17s6.89-4.47,6.89-9S275.23,79.41,270.18,79.41Z" transform="translate(-80.67 -54.9)"/><path class="cls-1" d="M289.31,77.62l.05,1.65a6.84,6.84,0,0,1,5.58-3.06,8.91,8.91,0,0,1,1.41.14c.43.1.43.49.39.83l-.34,2.18a.51.51,0,0,1-.54.49c-.39,0-.68-.15-1.55-.15a6.34,6.34,0,0,0-4.85,2.92V99.17c0,.63-.29,1-.93,1h-2.28c-.63,0-.92-.34-.92-1V77.71c0-.72.34-1,.92-1h2.09C289,76.74,289.31,77,289.31,77.62Z" transform="translate(-80.67 -54.9)"/><path class="cls-1" d="M330.43,76.74c.53,0,.68.54.53,1l-6.5,21.6a1.15,1.15,0,0,1-1.17.88h-2.47a1,1,0,0,1-1.17-.88L315,83.1h-.05l-4.56,16.26a1.11,1.11,0,0,1-1.21.83h-2.43a1.13,1.13,0,0,1-1.17-.88l-6.45-21.6c-.15-.48-.05-1,.68-1h2.57c.73,0,1.07.25,1.16.68l4.62,17.72h.09l5.05-17.67a.9.9,0,0,1,1-.73h2c.44,0,.73.1.88.58l5.14,17.87h.1l4.56-17.62a1,1,0,0,1,1.17-.83Z" transform="translate(-80.67 -54.9)"/><path class="cls-1" d="M355.33,99.56c0,.48-.24.63-.73.63h-2c-2.13,0-3.15-1.65-3.15-3.59h-.1a8.89,8.89,0,0,1-7.28,4.07c-6.7,0-9.66-5.68-9.66-11.79,0-8.11,4.8-12.67,10.34-12.67a8.24,8.24,0,0,1,6.5,3l.05-1.6c0-.58.39-.83.92-.83h2.19c.58,0,.87.29.87.92v17a5.42,5.42,0,0,0,.24,2.19.82.82,0,0,0,.83.43h.34c.44,0,.68.1.68.63ZM349.11,83a6.75,6.75,0,0,0-5.87-3.49c-3.74,0-6.55,3.3-6.55,9.08,0,5.33,2.48,8.64,6,8.64,3.11,0,5.59-2.48,6.45-4.91Z" transform="translate(-80.67 -54.9)"/><path class="cls-1" d="M363.38,77.62l0,1.65A6.85,6.85,0,0,1,369,76.21a8.79,8.79,0,0,1,1.4.14c.44.1.44.49.39.83l-.34,2.18a.5.5,0,0,1-.53.49c-.39,0-.68-.15-1.55-.15a6.36,6.36,0,0,0-4.86,2.92V99.17c0,.63-.29,1-.92,1h-2.28c-.63,0-.92-.34-.92-1V77.71c0-.72.34-1,.92-1h2.09C363,76.74,363.38,77,363.38,77.62Z" transform="translate(-80.67 -54.9)"/><path class="cls-1" d="M393,99.17c0,.63-.29,1-.73,1h-2.09c-.73,0-1-.29-1-.92l0-1.75a9.74,9.74,0,0,1-7.14,3.15c-7,0-10-5.72-10-12.08,0-7.14,4.17-12.43,10.58-12.43a8.68,8.68,0,0,1,6.31,2.72V67c0-.63.15-.92.78-1,2.48-.34,2.52-.34,2.62-.34.49,0,.73.24.73.82Zm-4.13-16.31a6.9,6.9,0,0,0-5.72-3.4c-4.37,0-6.9,3.59-6.9,8.93,0,5.15,2.28,9,6.5,9a8.13,8.13,0,0,0,6.12-3.2Z" transform="translate(-80.67 -54.9)"/><path class="cls-1" d="M404.88,100.67a17.18,17.18,0,0,1-6.65-1.55.68.68,0,0,1-.43-.92l.63-1.75a.62.62,0,0,1,.82-.44A16.79,16.79,0,0,0,405,97.47c2.81,0,4.71-1.36,4.71-3.64,0-1.89-1.41-2.91-3.64-3.79l-3.26-1.26c-2.86-1.12-5-3.06-5-6.11,0-4.28,3.88-6.46,8.15-6.46a14.39,14.39,0,0,1,6.31,1.36c.29.14.44.29.44.48a1.4,1.4,0,0,1-.1.39l-.54,1.7c-.09.34-.29.49-.53.49a1.49,1.49,0,0,1-.39-.1,14.54,14.54,0,0,0-5.09-1.17c-2.58,0-4,1.36-4,3s1,2.43,3,3.3l3.78,1.61c2.67,1.11,4.85,3,4.85,6.16C413.76,97.9,410,100.67,404.88,100.67Z" transform="translate(-80.67 -54.9)"/><path class="cls-1" d="M419.4,66.43c0,.2-.15.22-.3.22h-1.75v5.83c0,.18-.07.28-.28.28h-.73a.24.24,0,0,1-.28-.28V66.65h-1.77c-.18,0-.25,0-.25-.22V65.9c0-.18.07-.26.22-.26h5c.16,0,.26,0,.26.18v.08Zm7.22,6.33h-.71a.29.29,0,0,1-.31-.33L425.53,68l-1.8,4.56a.24.24,0,0,1-.25.18h-.43a.28.28,0,0,1-.28-.2l-2-4.56-.05,4.5c0,.21-.1.26-.28.26h-.68c-.18,0-.23-.1-.23-.26v0l.18-6.56c0-.2.08-.28.26-.28h.63a.33.33,0,0,1,.35.2l2.31,5.27,2.17-5.27c.05-.15.1-.2.28-.2h.66c.18,0,.25.08.25.26l.23,6.55v0C426.87,72.66,426.82,72.76,426.62,72.76Z" transform="translate(-80.67 -54.9)"/><path class="cls-1" d="M126.76,86.45,123.57,88v9.57a2.9,2.9,0,0,1-2.9,2.9h-6.62V111.1l-25.23-5.51h-.07V93.53A21.72,21.72,0,1,1,124.1,76.24l3.59,7.61A2,2,0,0,1,126.76,86.45ZM117,75.79v0a2.36,2.36,0,0,0,.37-1.27,2.39,2.39,0,0,0-.37-1.27v0l0-.07a3,3,0,0,0-.41-.46l-12-10.2a2.35,2.35,0,0,0-3,3.58l7.15,6.09H91.12a2.35,2.35,0,0,0,0,4.7h17.53l-7.15,6.09a2.37,2.37,0,0,0-.26,3.32,2.34,2.34,0,0,0,1.79.82,2.31,2.31,0,0,0,1.52-.56l12-10.2a3,3,0,0,0,.41-.46Z" transform="translate(-80.67 -54.9)"/></svg>